<svg id="Calque_1" data-name="Calque 1" xmlns="http://www.w3.org/2000/svg" viewBox="0 0 1242.35 437.1"><defs><style>.cls-1{font-size:405.43px;font-family:Mandala;}.cls-1,.cls-2{fill:#fff;}.cls-3{opacity:0.14;}.cls-4{fill:#f9f9f9;}.cls-5{fill:none;stroke:#009bad;stroke-miterlimit:10;stroke-width:60px;}</style></defs><title>logo</title><text class="cls-1" transform="translate(443.97 344.66) scale(1.05 1)">afya</text><path class="cls-2" d="M453.64,159.33v231a17.93,17.93,0,0,1-17.86,18H115.51a17.94,17.94,0,0,1-17.86-18V119.59a17.93,17.93,0,0,1,17.86-18h55.74a133.82,133.82,0,0,1,76.08,23.76c1.07.74,2.12,1.49,3.17,2.26a133.75,133.75,0,0,1,14.74,12.55l1.17,1.16H435.78A17.93,17.93,0,0,1,453.64,159.33Z" transform="translate(-79.66 -39.84)"/><path class="cls-3" d="M432.85,141.33V263H116V125.35H247.33a135.18,135.18,0,0,1,19.08,16H432.85Z" transform="translate(-79.66 -39.84)"/><rect class="cls-4" x="38.89" y="87.76" width="316.83" height="137.66"/><rect class="cls-3" x="42.01" y="92.05" width="316.83" height="137.66"/><rect class="cls-4" x="44.53" y="94.77" width="316.83" height="137.66"/><path class="cls-3" d="M453.64,159.33v231a17.93,17.93,0,0,1-17.86,18H115.51a17.94,17.94,0,0,1-17.86-18V140.16H279.94a149.7,149.7,0,0,1,14.15-12.55H435.38v13.72h.4A17.93,17.93,0,0,1,453.64,159.33Z" transform="translate(-79.66 -39.84)"/><path class="cls-2" d="M452,101.59H390.6a147.6,147.6,0,0,0-104.78,43.75H99.33a19.75,19.75,0,0,0-19.67,19.83V419.49a19.75,19.75,0,0,0,19.67,19.83H452a19.75,19.75,0,0,0,19.67-19.83V121.41A19.75,19.75,0,0,0,452,101.59Z" transform="translate(-79.66 -39.84)"/><line class="cls-5" x1="295.58" y1="251.43" x2="92.36" y2="251.43"/><line class="cls-5" x1="193.97" y1="149.82" x2="193.97" y2="353.04"/></svg>